<svg width="11" height="11" viewBox="0 0 11 11" fill="none" xmlns="http://www.w3.org/2000/svg">
<path d="M5.50029 0C2.46227 0 2.98437e-08 2.46227 2.98437e-08 5.49971C-7.52167e-05 6.22204 0.142143 6.93731 0.418531 7.60467C0.69492 8.27203 1.10006 8.87841 1.61083 9.38917C2.12159 9.89993 2.72797 10.3051 3.39533 10.5815C4.06269 10.8579 4.77796 11.0001 5.50029 11C8.53716 11 11 8.53773 11 5.49971C11 2.46227 8.53716 0 5.50029 0ZM6.01359 1.98563C6.54981 1.98563 6.70736 2.2967 6.70736 2.65247C6.70736 3.09645 6.35217 3.50721 5.74548 3.50721C5.2379 3.50721 4.99615 3.25228 5.01104 2.83006C5.01104 2.4743 5.30837 1.98563 6.01359 1.98563ZM4.63981 8.79381C4.27316 8.79381 4.00562 8.57096 4.2617 7.59419L4.68163 5.86121C4.75439 5.58393 4.76642 5.47279 4.68163 5.47279C4.57221 5.47279 4.09614 5.66413 3.81543 5.85318L3.63268 5.55357C4.52351 4.80938 5.54784 4.37285 5.98609 4.37285C6.35274 4.37285 6.41347 4.80595 6.23072 5.47279L5.74949 7.29457C5.66413 7.61653 5.7008 7.72767 5.78616 7.72767C5.89615 7.72767 6.25592 7.59476 6.60997 7.31576L6.81735 7.59419C5.95058 8.46039 5.00589 8.79381 4.63981 8.79381Z" fill="#282C26"/>
</svg>
